<svg xmlns="http://www.w3.org/2000/svg" fill="none" viewBox="0 0 156 44"><path fill="#253746" d="M57.57 39.72V26.3c0-3.3-1.7-6.3-5.04-6.3-3.3 0-5.25 3-5.25 6.3v13.43H41.2V14.6h5.64l.45 3.05c1.3-2.55 4.15-3.46 6.5-3.46 2.94 0 5.89 1.22 7.29 4.68 2.2-3.56 5.04-4.58 8.24-4.58 6.99 0 10.43 4.37 10.43 11.9v13.53h-6.09V26.2c0-3.3-1.35-6.1-4.64-6.1-3.3 0-5.35 2.9-5.35 6.2v13.43h-6.09ZM90.2 27c0 4.79 3.26 7.64 7.3 7.64 9.59 0 9.59-15.21 0-15.21-4.04 0-7.3 2.8-7.3 7.58ZM105 14.56h5.83v25.18h-5.74l-.3-3.82c-1.4 2.95-5.24 4.37-7.99 4.42-7.29.05-12.68-4.52-12.68-13.32 0-8.65 5.64-13.18 12.83-13.13 3.3 0 6.44 1.58 7.84 4.07l.2-3.4ZM116.4 14.55v25.18h6.1V14.55h-6.1Zm6.65-7.26c0 4.83-7.2 4.83-7.2 0s7.2-4.83 7.2 0ZM134.55 27.16c0 4.53 3.3 7.38 7.14 7.38 3.9 0 6.99-3 6.99-7.38 0-4.53-3.1-7.32-7-7.32a7.1 7.1 0 0 0-7.13 7.32Zm-.4-23.02v13.92c1.45-2.6 5.5-4.02 8.09-4.02 7.19 0 12.53 4.47 12.53 13.12 0 8.24-5.44 13.12-12.68 13.12-3 0-6.05-1.01-7.94-4.01l-.4 3.45h-5.7V4.14h6.1Z"/><path fill="#40C1AC" d="M33.92 12.41A17.67 17.67 0 0 0 19 4.12c-9.82 0-17.77 8.1-17.77 18.1 0 1.25.12 2.47.36 3.65 15.12-9.71 27.25-12.61 32.33-13.46ZM34.29 13C19.32 19.6 9.5 30.96 6.39 34.96a17.55 17.55 0 0 0 12.6 5.35c9.82 0 17.77-8.1 17.77-18.1 0-3.36-.9-6.5-2.47-9.2Z"/></svg>