<svg width="76" height="20" viewBox="0 0 76 20" fill="none" xmlns="http://www.w3.org/2000/svg">
<g clip-path="url(#clip0_2103_5105)">
<path d="M19.8055 8.0415H19V8H10V12H15.6515C14.827 14.3285 12.6115 16 10 16C6.6865 16 4 13.3135 4 10C4 6.6865 6.6865 4 10 4C11.5295 4 12.921 4.577 13.9805 5.5195L16.809 2.691C15.023 1.0265 12.634 0 10 0C4.4775 0 0 4.4775 0 10C0 15.5225 4.4775 20 10 20C15.5225 20 20 15.5225 20 10C20 9.3295 19.931 8.675 19.8055 8.0415Z" fill="#FFC107"/>
<path d="M1.15234 5.3455L4.43784 7.755C5.32684 5.554 7.47984 4 9.99934 4C11.5288 4 12.9203 4.577 13.9798 5.5195L16.8083 2.691C15.0223 1.0265 12.6333 0 9.99934 0C6.15834 0 2.82734 2.1685 1.15234 5.3455Z" fill="#FF3D00"/>
<path d="M9.99997 20.0001C12.583 20.0001 14.93 19.0116 16.7045 17.4041L13.6095 14.7851C12.5717 15.5743 11.3037 16.0011 9.99997 16.0001C7.39897 16.0001 5.19047 14.3416 4.35847 12.0271L1.09747 14.5396C2.75247 17.7781 6.11347 20.0001 9.99997 20.0001Z" fill="#4CAF50"/>
<path d="M19.8055 8.0415H19V8H10V12H15.6515C15.2571 13.1082 14.5467 14.0766 13.608 14.7855L13.6095 14.7845L16.7045 17.4035C16.4855 17.6025 20 15 20 10C20 9.3295 19.931 8.675 19.8055 8.0415Z" fill="#1976D2"/>
<g opacity="0.4">
<path d="M40.032 10.0241V14.5961H39L38.664 13.6961C38.496 13.8081 38.312 13.9241 38.112 14.0441C37.912 14.1561 37.68 14.2641 37.416 14.3681C37.16 14.4721 36.864 14.5561 36.528 14.6201C36.2 14.6841 35.824 14.7161 35.4 14.7161C35.032 14.7161 34.652 14.6841 34.26 14.6201C33.868 14.5561 33.488 14.4521 33.12 14.3081C32.76 14.1641 32.416 13.9761 32.088 13.7441C31.768 13.5041 31.488 13.2161 31.248 12.8801C31.008 12.5441 30.816 12.1521 30.672 11.7041C30.536 11.2481 30.468 10.7321 30.468 10.1561C30.468 9.57206 30.56 9.00406 30.744 8.45206C30.928 7.90006 31.216 7.41206 31.608 6.98806C32 6.55606 32.504 6.21206 33.12 5.95606C33.736 5.69206 34.48 5.56006 35.352 5.56006C35.856 5.56006 36.36 5.61206 36.864 5.71606C37.368 5.81206 37.832 5.97606 38.256 6.20806C38.68 6.44006 39.044 6.74406 39.348 7.12006C39.66 7.48806 39.868 7.94806 39.972 8.50006H38.232C38.184 8.38806 38.108 8.24806 38.004 8.08006C37.908 7.91206 37.76 7.75206 37.56 7.60006C37.368 7.44006 37.112 7.30406 36.792 7.19206C36.472 7.08006 36.06 7.02406 35.556 7.02406C34.868 7.02406 34.304 7.12806 33.864 7.33606C33.432 7.53606 33.088 7.79206 32.832 8.10406C32.584 8.40806 32.412 8.74006 32.316 9.10006C32.22 9.45206 32.172 9.78006 32.172 10.0841C32.172 10.6041 32.252 11.0601 32.412 11.4521C32.58 11.8361 32.808 12.1601 33.096 12.4241C33.384 12.6801 33.724 12.8761 34.116 13.0121C34.516 13.1401 34.948 13.2041 35.412 13.2041C36.26 13.2041 36.924 13.0561 37.404 12.7601C37.884 12.4641 38.228 12.0081 38.436 11.3921H35.376V10.0241H40.032Z" fill="#112211"/>
<path d="M44.6601 13.4441C45.3321 13.4441 45.8481 13.2521 46.2081 12.8681C46.5761 12.4761 46.7601 11.9361 46.7601 11.2481C46.7601 10.8721 46.7041 10.5481 46.5921 10.2761C46.4801 10.0041 46.3281 9.78406 46.1361 9.61606C45.9441 9.44006 45.7201 9.31206 45.4641 9.23206C45.2081 9.15206 44.9401 9.11206 44.6601 9.11206C44.3721 9.11206 44.1001 9.15206 43.8441 9.23206C43.5961 9.31206 43.3761 9.44006 43.1841 9.61606C42.9921 9.78406 42.8401 10.0041 42.7281 10.2761C42.6161 10.5481 42.5601 10.8721 42.5601 11.2481C42.5601 11.9361 42.7401 12.4761 43.1001 12.8681C43.4681 13.2521 43.9881 13.4441 44.6601 13.4441ZM44.6601 14.7161C44.2201 14.7161 43.7841 14.6561 43.3521 14.5361C42.9201 14.4241 42.5321 14.2321 42.1881 13.9601C41.8521 13.6881 41.5761 13.3321 41.3601 12.8921C41.1521 12.4521 41.0481 11.9121 41.0481 11.2721C41.0481 10.8401 41.1161 10.4201 41.2521 10.0121C41.3881 9.59606 41.6001 9.22806 41.8881 8.90806C42.1841 8.58806 42.5601 8.33206 43.0161 8.14006C43.4721 7.94006 44.0201 7.84006 44.6601 7.84006C45.3001 7.84006 45.8481 7.94006 46.3041 8.14006C46.7601 8.33206 47.1321 8.58806 47.4201 8.90806C47.7161 9.22806 47.9321 9.59606 48.0681 10.0121C48.2041 10.4201 48.2721 10.8401 48.2721 11.2721C48.2721 11.9121 48.1641 12.4521 47.9481 12.8921C47.7401 13.3321 47.4641 13.6881 47.1201 13.9601C46.7841 14.2321 46.4001 14.4241 45.9681 14.5361C45.5361 14.6561 45.1001 14.7161 44.6601 14.7161Z" fill="#112211"/>
<path d="M52.6523 13.4441C53.3243 13.4441 53.8403 13.2521 54.2003 12.8681C54.5683 12.4761 54.7523 11.9361 54.7523 11.2481C54.7523 10.8721 54.6963 10.5481 54.5843 10.2761C54.4723 10.0041 54.3203 9.78406 54.1283 9.61606C53.9363 9.44006 53.7123 9.31206 53.4563 9.23206C53.2003 9.15206 52.9323 9.11206 52.6523 9.11206C52.3643 9.11206 52.0923 9.15206 51.8363 9.23206C51.5883 9.31206 51.3683 9.44006 51.1763 9.61606C50.9843 9.78406 50.8323 10.0041 50.7203 10.2761C50.6083 10.5481 50.5523 10.8721 50.5523 11.2481C50.5523 11.9361 50.7323 12.4761 51.0923 12.8681C51.4603 13.2521 51.9803 13.4441 52.6523 13.4441ZM52.6523 14.7161C52.2123 14.7161 51.7763 14.6561 51.3443 14.5361C50.9123 14.4241 50.5243 14.2321 50.1803 13.9601C49.8443 13.6881 49.5683 13.3321 49.3523 12.8921C49.1443 12.4521 49.0403 11.9121 49.0403 11.2721C49.0403 10.8401 49.1083 10.4201 49.2443 10.0121C49.3803 9.59606 49.5923 9.22806 49.8803 8.90806C50.1763 8.58806 50.5523 8.33206 51.0083 8.14006C51.4643 7.94006 52.0123 7.84006 52.6523 7.84006C53.2923 7.84006 53.8403 7.94006 54.2963 8.14006C54.7523 8.33206 55.1243 8.58806 55.4123 8.90806C55.7083 9.22806 55.9243 9.59606 56.0603 10.0121C56.1963 10.4201 56.2643 10.8401 56.2643 11.2721C56.2643 11.9121 56.1563 12.4521 55.9403 12.8921C55.7323 13.3321 55.4563 13.6881 55.1123 13.9601C54.7763 14.2321 54.3923 14.4241 53.9603 14.5361C53.5283 14.6561 53.0923 14.7161 52.6523 14.7161Z" fill="#112211"/>
<path d="M60.4405 11.4641C60.6405 11.4641 60.8445 11.4441 61.0525 11.4041C61.2605 11.3561 61.4525 11.2841 61.6285 11.1881C61.8045 11.0841 61.9485 10.9521 62.0605 10.7921C62.1725 10.6321 62.2285 10.4321 62.2285 10.1921C62.2285 9.95206 62.1725 9.75206 62.0605 9.59206C61.9485 9.43206 61.8045 9.30406 61.6285 9.20806C61.4605 9.11206 61.2725 9.04406 61.0645 9.00406C60.8565 8.96406 60.6525 8.94406 60.4525 8.94406C60.2445 8.94406 60.0365 8.96406 59.8285 9.00406C59.6285 9.04406 59.4445 9.11206 59.2765 9.20806C59.1165 9.30406 58.9845 9.43606 58.8805 9.60406C58.7765 9.76406 58.7245 9.96406 58.7245 10.2041C58.7245 10.4601 58.7765 10.6681 58.8805 10.8281C58.9845 10.9881 59.1165 11.1161 59.2765 11.2121C59.4445 11.3081 59.6285 11.3761 59.8285 11.4161C60.0365 11.4481 60.2405 11.4641 60.4405 11.4641ZM59.3605 14.5841C59.2725 14.5841 59.1765 14.5881 59.0725 14.5961C58.9765 14.6121 58.8845 14.6361 58.7965 14.6681C58.7165 14.7081 58.6485 14.7561 58.5925 14.8121C58.5365 14.8761 58.5085 14.9561 58.5085 15.0521C58.5085 15.3161 58.6725 15.4801 59.0005 15.5441C59.3285 15.6081 59.7885 15.6401 60.3805 15.6401C60.6685 15.6401 60.9565 15.6281 61.2445 15.6041C61.5325 15.5881 61.7885 15.5561 62.0125 15.5081C62.2445 15.4601 62.4325 15.3921 62.5765 15.3041C62.7205 15.2241 62.7925 15.1201 62.7925 14.9921C62.7925 14.8801 62.7685 14.7961 62.7205 14.7401C62.6805 14.6841 62.5925 14.6441 62.4565 14.6201C62.3205 14.5961 62.1245 14.5841 61.8685 14.5841C61.6205 14.5841 61.2925 14.5841 60.8845 14.5841H59.3605ZM64.4125 9.10006C64.3485 9.08406 64.2645 9.06006 64.1605 9.02806C64.0565 8.99606 63.9605 8.98806 63.8725 9.00406C63.7845 9.00406 63.6925 9.02006 63.5965 9.05206C63.5085 9.07606 63.4405 9.10006 63.3925 9.12406C63.4405 9.18806 63.5005 9.31206 63.5725 9.49606C63.6525 9.68006 63.6925 9.91206 63.6925 10.1921C63.6925 10.6321 63.6005 11.0041 63.4165 11.3081C63.2405 11.6041 63.0005 11.8481 62.6965 12.0401C62.4005 12.2241 62.0525 12.3601 61.6525 12.4481C61.2605 12.5281 60.8525 12.5681 60.4285 12.5681C60.1245 12.5681 59.8565 12.5481 59.6245 12.5081C59.4005 12.4681 59.2165 12.4201 59.0725 12.3641C58.9845 12.4201 58.8925 12.4921 58.7965 12.5801C58.7085 12.6681 58.6645 12.7681 58.6645 12.8801C58.6645 12.9361 58.6765 12.9881 58.7005 13.0361C58.7325 13.0841 58.7965 13.1241 58.8925 13.1561C58.9965 13.1881 59.1405 13.2121 59.3245 13.2281C59.5165 13.2441 59.7765 13.2521 60.1045 13.2521H62.1325C62.8605 13.2761 63.4245 13.4041 63.8245 13.6361C64.2245 13.8601 64.4245 14.2241 64.4245 14.7281C64.4245 15.1121 64.2965 15.4321 64.0405 15.6881C63.7845 15.9441 63.4565 16.1441 63.0565 16.2881C62.6565 16.4401 62.2085 16.5481 61.7125 16.6121C61.2165 16.6761 60.7245 16.7081 60.2365 16.7081C59.7885 16.7081 59.3605 16.6841 58.9525 16.6361C58.5445 16.5881 58.1845 16.5081 57.8725 16.3961C57.5685 16.2841 57.3245 16.1361 57.1405 15.9521C56.9645 15.7681 56.8765 15.5441 56.8765 15.2801C56.8765 15.0881 56.9125 14.9321 56.9845 14.8121C57.0645 14.7001 57.1645 14.6081 57.2845 14.5361C57.4125 14.4721 57.5525 14.4241 57.7045 14.3921C57.8645 14.3521 58.0205 14.3161 58.1725 14.2841V14.2601C57.8925 14.2361 57.6605 14.1481 57.4765 13.9961C57.2925 13.8361 57.2005 13.5921 57.2005 13.2641C57.2005 13.1041 57.2325 12.9561 57.2965 12.8201C57.3685 12.6761 57.4565 12.5521 57.5605 12.4481C57.6725 12.3361 57.7965 12.2481 57.9325 12.1841C58.0685 12.1121 58.2005 12.0681 58.3285 12.0521V12.0281C57.9685 11.8281 57.7005 11.5721 57.5245 11.2601C57.3485 10.9481 57.2605 10.5881 57.2605 10.1801C57.2605 9.70806 57.3565 9.32006 57.5485 9.01606C57.7485 8.71206 58.0085 8.47606 58.3285 8.30806C58.6485 8.13206 59.0045 8.01206 59.3965 7.94806C59.7885 7.87606 60.1845 7.84006 60.5845 7.84006C61.1525 7.84006 61.6085 7.90006 61.9525 8.02006C62.3045 8.14006 62.5925 8.27606 62.8165 8.42806C62.8725 8.37206 62.9445 8.30406 63.0325 8.22406C63.1205 8.14406 63.2205 8.06806 63.3325 7.99606C63.4525 7.92406 63.5805 7.86406 63.7165 7.81606C63.8605 7.76006 64.0125 7.73206 64.1725 7.73206H64.4125V9.10006Z" fill="#112211"/>
<path d="M65.5764 5.77606H67.0644V14.5001H65.5764V5.77606Z" fill="#112211"/>
<path d="M75.4562 12.5681C75.4322 12.7041 75.3522 12.8921 75.2162 13.1321C75.0882 13.3721 74.8922 13.6081 74.6282 13.8401C74.3642 14.0721 74.0242 14.2761 73.6082 14.4521C73.2002 14.6281 72.6962 14.7161 72.0962 14.7161C71.5202 14.7161 71.0042 14.6321 70.5482 14.4641C70.0922 14.2881 69.7042 14.0481 69.3842 13.7441C69.0722 13.4401 68.8322 13.0761 68.6642 12.6521C68.4962 12.2281 68.4122 11.7641 68.4122 11.2601C68.4122 10.8041 68.4842 10.3721 68.6282 9.96406C68.7802 9.54806 69.0042 9.18406 69.3002 8.87206C69.6042 8.55206 69.9802 8.30006 70.4282 8.11606C70.8762 7.93206 71.3962 7.84006 71.9882 7.84006C72.5962 7.84806 73.1242 7.94406 73.5722 8.12806C74.0202 8.31206 74.3922 8.57206 74.6882 8.90806C74.9842 9.23606 75.2042 9.63606 75.3482 10.1081C75.5002 10.5801 75.5762 11.1081 75.5762 11.6921H69.9242C69.9402 11.7961 69.9722 11.9481 70.0202 12.1481C70.0762 12.3401 70.1762 12.5361 70.3202 12.7361C70.4642 12.9281 70.6722 13.1041 70.9442 13.2641C71.2242 13.4161 71.5922 13.5001 72.0482 13.5161C72.5202 13.5161 72.9042 13.4241 73.2002 13.2401C73.5042 13.0481 73.7122 12.8241 73.8242 12.5681H75.4562ZM73.9922 10.5401C73.8802 9.99606 73.6442 9.61206 73.2842 9.38806C72.9322 9.15606 72.4882 9.04006 71.9522 9.04006C71.7602 9.04006 71.5602 9.06006 71.3522 9.10006C71.1522 9.14006 70.9602 9.21606 70.7762 9.32806C70.6002 9.44006 70.4402 9.59206 70.2962 9.78406C70.1522 9.97606 70.0442 10.2281 69.9722 10.5401H73.9922Z" fill="#112211"/>
</g>
</g>
<defs>
<clipPath id="clip0_2103_5105">
<rect width="76" height="20.0001" fill="white"/>
</clipPath>
</defs>
</svg>
