<svg xmlns="http://www.w3.org/2000/svg" fill="none" viewBox="0 0 164 102"><path fill="#fff" d="M82.6 72.4c6.9 0 7.3.1 8.4 2 .9 1.3 1 2.2.5 5.5l-.4 2.7h-5.7v-1l.2-2.2V78h-3.8c-3.3-.1-3.9 0-4.2.2l-.8 4.4a57.4 57.4 0 0 0-1.4 12.5c.2.4.6.5 3.8.5 2.6 0 3.8-.1 4-.3.3-.2.5-1 .7-2.4l.3-2.1H90c0 .1 0 1.5-.3 3-.3 2.3-.6 3.2-1 4.1a6.8 6.8 0 0 1-3.8 3c-1.2.3-11.4.3-12.5 0a4.5 4.5 0 0 1-3-3.2c-.2-1 0-2.1 1-9.8 1.3-10 1.4-10.8 2-12 .4-1.3 2-2.8 3.3-3.2.8-.3 2.2-.4 7-.3Z"/><path fill="#fff" fill-rule="evenodd" d="m23.3 72.5 1 4.9 4.1 22.9.2.6h-3.1c-3.6 0-3.2.5-3.8-3.7l-.4-2.6-9 .1-2.6 6.2h-6l.5-1.2 12.3-27c0-.1 1.6-.2 3.5-.2h3.3Zm-4.3 7L16.8 84l-2 5h2.8c1.6 0 2.9-.1 2.9-.2L19 79.4Z" clip-rule="evenodd"/><path fill="#fff" d="m98 100.8-5.4.1v-.6l.6-4.5.1-.7h5.5l-.8 5.7Z"/><path fill="#fff" fill-rule="evenodd" d="M43.9 72.5c7.5 0 8 0 8.9.5a5 5 0 0 1 2.4 3.2c.1.9-.9 8.5-1.3 10s-1.6 2.7-4 4.1a671 671 0 0 1 2.8 9.4l.3 1.2-6.3-.1-3-10.4h-4.5l-.4 3.2-.7 5.2-.3 2-5.8.1v-.8l2.5-17.6 1-8 .3-1.5.1-.5h8Zm.7 5.4c-3.3 0-3.4 0-3.6.5-.2.4-1 5.6-1 6.4 0 .4 7 .4 7.8 0 .7-.3.7-.4 1.1-3.6.3-2.4.3-3-.5-3.1l-3.8-.2Z" clip-rule="evenodd"/><path fill="#fff" d="M67 73.3a1589.2 1589.2 0 0 0-3.5 25.4l-.3 2-5.9.2.2-.8a1549.8 1549.8 0 0 0 3.7-27.3c0-.2.8-.3 3-.3H67l-.2.8ZM133.8 73.2l-.5 3.4a1589.6 1589.6 0 0 1-3.2 24c-.1.3-5 .4-5.3.1l.1-1.4a894.3 894.3 0 0 0 2.2-16.3c.1-.7 0-.5-1 1.2a110.8 110.8 0 0 0-4.5 8l-2.3 4h-4.2l-1-3.4a1237.6 1237.6 0 0 0-2.6-9.2c-.3-1.3-.5-1.2-.7.3a938.4 938.4 0 0 1-2.2 16.7c0 .2-.7.3-2.7.3h-2.7l.1-1a4896.2 4896.2 0 0 0 3.3-24.3l.4-3h6.3l.2 1a149.7 149.7 0 0 0 3.6 11.8l1 3.2c.3.2 3-4.4 8-13.5l1.5-2.5h6.4l-.2.6Z"/><path fill="#fff" fill-rule="evenodd" d="M148 72.5c8.6 0 8.8 0 10.3 1.5 1.4 1.4 1.4 2.1.4 10a61.8 61.8 0 0 1-2.2 13.4 6.6 6.6 0 0 1-2.8 2.9c-1 .5-1.2.5-9.2.6-4.6 0-8.3 0-8.3-.2a841.2 841.2 0 0 1 3.8-27.9c.1-.2 1.9-.3 8-.3Zm-3.1 6-.5 3.3a1257.2 1257.2 0 0 1-1.7 13.3c0 .5.1.5 4.1.4 3.6 0 4.3-.1 4.5-.5.2-.3.6-2.4 1.8-11.3l.4-3.2c.3-1.8.3-1.8-.1-2.3-.3-.3-1-.3-4.4-.3h-4l-.1.6Z" clip-rule="evenodd"/><path fill="#fff" d="M72.7 53.4a202 202 0 0 1 82.6 12.7c3.5 1.5 9 4.1 8.7 4.3l-4-.9a396.2 396.2 0 0 0-59.7-9.8c-8.4-.8-26-1-35.4-.3-11.8.7-23 2.3-40.6 5.6A778.8 778.8 0 0 0 0 69.9a174.8 174.8 0 0 1 41.7-12.5 268.8 268.8 0 0 1 31-4Z"/><path fill="#fff" d="M91 .2c2.2-.3 7.3-.3 10.4.1 10 1.3 17 4 20.7 8.2l1.5 1.6 2 .2c2.3.1 3.8.5 4.9 1.3.6.5 2.9 4.7 3.8 7 .4 1.2.4 1.2 0 1.5-.3.2-.9.3-1.4.3h-.8l-1.7-3.3c-.8-1.8-1.8-3.4-2-3.6-.4-.3-3.3-.8-3.5-.6l.5 1.4c.9 2 2.4 7 3.1 10.2a95 95 0 0 1 2 19.2v3h-1l-9.8 1c-4.7.3-4.9.4-5.3 1.1l-.3.9 2.1.5c6.7.9 22.3 4.5 30.2 7 8 2.5 12 4.1 6.5 2.6a86.5 86.5 0 0 0-8-1.9 453.4 453.4 0 0 0-32.7-6C108 51 89 49.4 84 49.4H83l.7-.6c1.4-1 1.8-2.2 1.8-4.9 0-2 0-2.4-.6-3.5-.9-1.4-1.7-2-2.8-2-2.1 0-4 3.2-3.8 6.3.1 1.5.7 3.2 1.5 4l.3.6-6.4.3a296.5 296.5 0 0 0-43.7 5.5A155.5 155.5 0 0 1 56.4 49c3.2-.4 13.4-1.4 18.2-1.7l2.7-.2v-3c0-2.4 0-3 .5-4 1.6-3.5 4.6-4.9 7-3.2 1.7 1.3 2.5 3.6 2.5 7.1v2.1H89a3594.7 3594.7 0 0 1 36.6-.7l3.3-.1-.2-3.1h-1.3a46.7 46.7 0 0 0-5.2.5l.3-1c.3-.6.6-.8 1.7-1.3a31 31 0 0 0 4-1.6c.4-.4-.2-7.5-.9-10.5l-.4-1.7-.3 1.6c-.4 2.1-1 3.4-2.3 4.5-2 1.8-4.9 2.1-9 1-6.3-1.5-9.3-4.6-12.6-12.6a94.6 94.6 0 0 0-7.3-14.5c-1.3-2-1.3-2.1-.9-2.3.3-.1 2.6-.3 5-.3a36.9 36.9 0 0 1 20.1 4.4l-.5-.7C115.3 4.4 105.5 2 95.5 2c-6.4 0-6.8.2-15.4 5a482.3 482.3 0 0 1-19.9 11 286 286 0 0 1-13.5 7.2 893.8 893.8 0 0 1-13.5 7c0-.2 4-2.5 9-5.4A13947 13947 0 0 0 80 5C86.3 1.4 87.8.7 91 .2Z"/><path fill="#fff" d="M38.8 45.5c.4 0 1-.1 1.6 0 1.1 0 2.5 1.3 2.9 2.6.3 1.2.2 1.3-.4.5a4 4 0 0 0-3.2-1.7c-1.6 0-2.5.8-4 3-.5.8-.7 1-.6.5.6-2.3 2.2-4.4 3.7-4.9ZM104 38.3c.1 0 .7 0 1.4.3l4 1.1 2.7.7 1.2 1.4a9 9 0 0 1 1.1 1.4l-10-.6a33 33 0 0 1-.3-4.3ZM88 5.7c1-.4 2-.5 2.8 0a13.1 13.1 0 0 1 3.2 4.7c1.7 3 3.7 9 4.7 13.9s1.5 8.2 1.8 14c.3 6 .3 6-.6 1.5a34.9 34.9 0 0 0-5.5-15c-1-1-2.8-1.8-4-1.8-1.1 0-3.3.6-7.4 2A5222.9 5222.9 0 0 1 30 42l5-2.6a1731 1731 0 0 0 25.7-12.8 287 287 0 0 0-17 4.9L32 34.8l1.8-.9c6-2.8 32.9-16.3 37.4-18.7A339.8 339.8 0 0 0 88 5.7ZM82.6 72.4c6.9 0 7.3.1 8.4 2 .9 1.3 1 2.2.5 5.5l-.4 2.7h-5.7v-1l.2-2.2V78h-3.8c-3.3-.1-3.9 0-4.2.2l-.8 4.4a57.4 57.4 0 0 0-1.4 12.5c.2.4.6.5 3.8.5 2.6 0 3.8-.1 4-.3.3-.2.5-1 .7-2.4l.3-2.1H90c0 .1 0 1.5-.3 3-.3 2.3-.6 3.2-1 4.1a6.8 6.8 0 0 1-3.8 3c-1.2.3-11.4.3-12.5 0a4.5 4.5 0 0 1-3-3.2c-.2-1 0-2.1 1-9.8 1.3-10 1.4-10.8 2-12 .4-1.3 2-2.8 3.3-3.2.8-.3 2.2-.4 7-.3Z"/><path fill="#fff" fill-rule="evenodd" d="m23.3 72.5 1 4.9 4.1 22.9.2.6h-3.1c-3.6 0-3.2.5-3.8-3.7l-.4-2.6-9 .1-2.6 6.2h-6l.5-1.2 12.3-27c0-.1 1.6-.2 3.5-.2h3.3Zm-4.3 7L16.8 84l-2 5h2.8c1.6 0 2.9-.1 2.9-.2L19 79.4ZM43.9 72.5c7.5 0 8 0 8.9.5a5 5 0 0 1 2.4 3.2c.1.9-.9 8.5-1.3 10s-1.6 2.7-4 4.1a678.2 678.2 0 0 1 2.8 9.4l.3 1.2-6.3-.1-3-10.4h-4.5l-.4 3.2-.7 5.2-.3 2-5.8.1v-.8l2.5-17.6 1-8 .3-1.5.1-.5h8Zm.7 5.4c-3.3 0-3.4 0-3.6.5-.2.4-1 5.6-1 6.4 0 .4 7 .4 7.8 0 .7-.3.7-.4 1.1-3.6.3-2.4.3-3-.5-3.1l-3.8-.2Z" clip-rule="evenodd"/><path fill="#fff" d="M67 73.3a1583.8 1583.8 0 0 0-3.5 25.4l-.3 2-5.9.2.2-.8a1546.8 1546.8 0 0 0 3.7-27.3c0-.2.8-.3 3-.3H67l-.2.8Z"/></svg>