<svg width="164" height="102" viewBox="0 0 164 102" fill="none" xmlns="http://www.w3.org/2000/svg">
<g clip-path="url(#clip0_2066_5517)">
<path d="M82.5998 72.4C89.4998 72.4 89.8998 72.5 90.9998 74.4C91.8998 75.7 91.9998 76.6 91.4998 79.9L91.0998 82.6H85.3998V81.6L85.5998 79.4V78H81.7998C78.4998 77.9 77.8998 78 77.5998 78.2L76.7998 82.6C75.8766 86.7028 75.4071 90.8946 75.3998 95.1C75.5998 95.5 75.9998 95.6 79.1998 95.6C81.7998 95.6 82.9998 95.5 83.1998 95.3C83.4998 95.1 83.6998 94.3 83.8998 92.9L84.1998 90.8H89.9998C89.9998 90.9 89.9998 92.3 89.6998 93.8C89.3998 96.1 89.0998 97 88.6998 97.9C87.844 99.3323 86.4916 100.4 84.8998 100.9C83.6998 101.2 73.4998 101.2 72.3998 100.9C71.6683 100.667 71.0086 100.25 70.4835 99.6903C69.9584 99.1302 69.5853 98.445 69.3998 97.7C69.1998 96.7 69.3998 95.6 70.3998 87.9C71.6998 77.9 71.7998 77.1 72.3998 75.9C72.7998 74.6 74.3998 73.1 75.6998 72.7C76.4998 72.4 77.8998 72.3 82.6998 72.4H82.5998Z" fill="#0AD3FF"/>
<path fill-rule="evenodd" clip-rule="evenodd" d="M23.3002 72.5L24.3002 77.4L28.4002 100.3L28.6002 100.9H25.5002C21.9002 100.9 22.3002 101.4 21.7002 97.2L21.3002 94.6L12.3002 94.7L9.7002 100.9H3.7002L4.2002 99.7L16.5002 72.7C16.5002 72.6 18.1002 72.5 20.0002 72.5H23.3002ZM19.0002 79.5L16.8002 84L14.8002 89H17.6002C19.2002 89 20.5002 88.9 20.5002 88.8L19.0002 79.4V79.5Z" fill="#0AD3FF"/>
<path d="M97.9996 100.8L92.5996 100.9V100.3L93.1996 95.8L93.2996 95.1H98.7996L97.9996 100.8Z" fill="#0AD3FF"/>
<path fill-rule="evenodd" clip-rule="evenodd" d="M43.9 72.5C51.4 72.5 51.9 72.5 52.8 73C53.3988 73.3395 53.921 73.7989 54.3339 74.3495C54.7469 74.9002 55.0418 75.5301 55.2 76.2C55.3 77.1 54.3 84.7 53.9 86.2C53.5 87.7 52.3 88.9 49.9 90.3C50.8562 93.4265 51.7896 96.5599 52.7 99.7L53 100.9L46.7 100.8L43.7 90.4H39.2L38.8 93.6L38.1 98.8L37.8 100.8L32 100.9V100.1L34.5 82.5L35.5 74.5L35.8 73L35.9 72.5H43.9ZM44.6 77.9C41.3 77.9 41.2 77.9 41 78.4C40.8 78.8 40 84 40 84.8C40 85.2 47 85.2 47.8 84.8C48.5 84.5 48.5 84.4 48.9 81.2C49.2 78.8 49.2 78.2 48.4 78.1L44.6 77.9Z" fill="#0AD3FF"/>
<path d="M66.9998 73.3C65.7649 81.7571 64.5982 90.2241 63.4998 98.7L63.1998 100.7L57.2998 100.9L57.4998 100.1C58.814 91.0111 60.0474 81.9108 61.1998 72.8C61.1998 72.6 61.9998 72.5 64.1998 72.5H66.9998L66.7998 73.3H66.9998ZM133.8 73.2L133.3 76.6C132.294 84.608 131.227 92.6082 130.1 100.6C130 100.9 125.1 101 124.8 100.7L124.9 99.3C125.683 93.8735 126.416 88.44 127.1 83C127.2 82.3 127.1 82.5 126.1 84.2C124.49 86.8034 122.989 89.4723 121.6 92.2L119.3 96.2H115.1L114.1 92.8C113.245 89.73 112.378 86.6633 111.5 83.6C111.2 82.3 111 82.4 110.8 83.9C110.116 89.4731 109.383 95.04 108.6 100.6C108.6 100.8 107.9 100.9 105.9 100.9H103.2L103.3 99.9C104.42 91.8028 105.52 83.7027 106.6 75.6L107 72.6H113.3L113.5 73.6C114.537 77.5811 115.738 81.5178 117.1 85.4L118.1 88.6C118.4 88.8 121.1 84.2 126.1 75.1L127.6 72.6H134L133.8 73.2Z" fill="#0AD3FF"/>
<path fill-rule="evenodd" clip-rule="evenodd" d="M148 72.5C156.6 72.5 156.8 72.5 158.3 74C159.7 75.4 159.7 76.1 158.7 84C158.461 88.5339 157.724 93.0277 156.5 97.4C155.892 98.635 154.913 99.649 153.7 100.3C152.7 100.8 152.5 100.8 144.5 100.9C139.9 100.9 136.2 100.9 136.2 100.7C137.311 91.3794 138.578 82.0782 140 72.8C140.1 72.6 141.9 72.5 148 72.5ZM144.9 78.5L144.4 81.8C143.857 86.2363 143.29 90.6697 142.7 95.1C142.7 95.6 142.8 95.6 146.8 95.5C150.4 95.5 151.1 95.4 151.3 95C151.5 94.7 151.9 92.6 153.1 83.7L153.5 80.5C153.8 78.7 153.8 78.7 153.4 78.2C153.1 77.9 152.4 77.9 149 77.9H145L144.9 78.5Z" fill="#0AD3FF"/>
<path d="M72.7 53.4C100.818 51.8293 128.953 56.1552 155.3 66.1C158.8 67.6 164.3 70.2 164 70.4L160 69.5C140.379 64.7165 120.421 61.4403 100.3 59.7C91.9 58.9 74.3 58.7 64.9 59.4C53.1 60.1 41.9 61.7 24.3 65C16.1745 66.5043 8.07349 68.1378 0 69.9C13.3248 64.012 27.3334 59.8128 41.7 57.4C51.947 55.4665 62.2978 54.1309 72.7 53.4Z" fill="#0AD3FF"/>
<path d="M91 0.199989C93.2 -0.100011 98.3 -0.100011 101.4 0.299989C111.4 1.59999 118.4 4.29999 122.1 8.49999L123.6 10.1L125.6 10.3C127.9 10.4 129.4 10.8 130.5 11.6C131.1 12.1 133.4 16.3 134.3 18.6C134.7 19.8 134.7 19.8 134.3 20.1C134 20.3 133.4 20.4 132.9 20.4H132.1L130.4 17.1C129.6 15.3 128.6 13.7 128.4 13.5C128 13.2 125.1 12.7 124.9 12.9L125.4 14.3C126.3 16.3 127.8 21.3 128.5 24.5C129.817 30.8155 130.487 37.2487 130.5 43.7V46.7H129.5L119.7 47.7C115 48 114.8 48.1 114.4 48.8L114.1 49.7L116.2 50.2C122.9 51.1 138.5 54.7 146.4 57.2C154.4 59.7 158.4 61.3 152.9 59.8C150.265 59.0402 147.595 58.4061 144.9 57.9C134.077 55.5009 123.17 53.4996 112.2 51.9C108 51 89 49.4 84 49.4H83L83.7 48.8C85.1 47.8 85.5 46.6 85.5 43.9C85.5 41.9 85.5 41.5 84.9 40.4C84 39 83.2 38.4 82.1 38.4C80 38.4 78.1 41.6 78.3 44.7C78.4 46.2 79 47.9 79.8 48.7L80.1 49.3L73.7 49.6C59.0171 50.3474 44.4102 52.1858 30 55.1C38.6057 52.3024 47.4393 50.2613 56.4 49C59.6 48.6 69.8 47.6 74.6 47.3L77.3 47.1V44.1C77.3 41.7 77.3 41.1 77.8 40.1C79.4 36.6 82.4 35.2 84.8 36.9C86.5 38.2 87.3 40.5 87.3 44V46.1H89C101.199 45.8045 113.399 45.5712 125.6 45.4L128.9 45.3L128.7 42.2H127.4C125.659 42.2695 123.923 42.4364 122.2 42.7L122.5 41.7C122.8 41.1 123.1 40.9 124.2 40.4C125.569 39.9601 126.905 39.4254 128.2 38.8C128.6 38.4 128 31.3 127.3 28.3L126.9 26.6L126.6 28.2C126.2 30.3 125.6 31.6 124.3 32.7C122.3 34.5 119.4 34.8 115.3 33.7C109 32.2 106 29.1 102.7 21.1C100.687 16.0664 98.2443 11.2152 95.4 6.59999C94.1 4.59999 94.1 4.49999 94.5 4.29999C94.8 4.19999 97.1 3.99999 99.5 3.99999C106.482 3.5312 113.453 5.0572 119.6 8.39999L119.1 7.69999C115.3 4.39999 105.5 1.99999 95.5 1.99999C89.1 1.99999 88.7 2.19999 80.1 6.99999C73.554 10.8225 66.9189 14.4902 60.2 18C55.765 20.5199 51.2634 22.9208 46.7 25.2C42.2199 27.5716 37.7198 29.905 33.2 32.2C33.2 32 37.2 29.7 42.2 26.8C54.8114 19.553 67.4114 12.2864 80 4.99999C86.3 1.39999 87.8 0.699989 91 0.199989Z" fill="#0AD3FF"/>
<path d="M38.8 45.5C39.2 45.5 39.8 45.4 40.4 45.5C41.5 45.5 42.9 46.8 43.3 48.1C43.6 49.3 43.5 49.4 42.9 48.6C42.5381 48.0848 42.0596 47.6623 41.5035 47.3669C40.9475 47.0715 40.3295 46.9115 39.7 46.9C38.1 46.9 37.2 47.7 35.7 49.9C35.2 50.7 35 50.9 35.1 50.4C35.7 48.1 37.3 46 38.8 45.5ZM104 38.3C104.1 38.3 104.7 38.3 105.4 38.6L109.4 39.7L112.1 40.4L113.3 41.8C113.712 42.2291 114.081 42.6981 114.4 43.2L104.4 42.6C104.206 41.1747 104.106 39.7383 104.1 38.3H104ZM88 5.69999C89 5.29999 90 5.19999 90.8 5.69999C92.1979 7.01348 93.2903 8.61793 94 10.4C95.7 13.4 97.7 19.4 98.7 24.3C99.7 29.2 100.2 32.5 100.5 38.3C100.8 44.3 100.8 44.3 99.9 39.8C99.2512 34.442 97.3685 29.3074 94.4 24.8C93.4 23.8 91.6 23 90.4 23C89.3 23 87.1 23.6 83 25C65.3637 30.7607 47.6967 36.4275 30 42L35 39.4C43.6019 35.2044 52.1689 30.9376 60.7 26.6C54.9843 28.0582 49.315 29.6923 43.7 31.5L32 34.8L33.8 33.9C39.8 31.1 66.7 17.6 71.2 15.2C76.8888 12.193 82.4911 9.02508 88 5.69999Z" fill="#0AD3FF"/>
<path d="M82.5998 72.4C89.4998 72.4 89.8998 72.5 90.9998 74.4C91.8998 75.7 91.9998 76.6 91.4998 79.9L91.0998 82.6H85.3998V81.6L85.5998 79.4V78H81.7998C78.4998 77.9 77.8998 78 77.5998 78.2L76.7998 82.6C75.8766 86.7028 75.4071 90.8946 75.3998 95.1C75.5998 95.5 75.9998 95.6 79.1998 95.6C81.7998 95.6 82.9998 95.5 83.1998 95.3C83.4998 95.1 83.6998 94.3 83.8998 92.9L84.1998 90.8H89.9998C89.9998 90.9 89.9998 92.3 89.6998 93.8C89.3998 96.1 89.0998 97 88.6998 97.9C87.844 99.3323 86.4916 100.4 84.8998 100.9C83.6998 101.2 73.4998 101.2 72.3998 100.9C71.6683 100.667 71.0086 100.25 70.4835 99.6903C69.9584 99.1302 69.5853 98.445 69.3998 97.7C69.1998 96.7 69.3998 95.6 70.3998 87.9C71.6998 77.9 71.7998 77.1 72.3998 75.9C72.7998 74.6 74.3998 73.1 75.6998 72.7C76.4998 72.4 77.8998 72.3 82.6998 72.4H82.5998Z" fill="#040F16"/>
<path fill-rule="evenodd" clip-rule="evenodd" d="M23.3002 72.5L24.3002 77.4L28.4002 100.3L28.6002 100.9H25.5002C21.9002 100.9 22.3002 101.4 21.7002 97.2L21.3002 94.6L12.3002 94.7L9.7002 100.9H3.7002L4.2002 99.7L16.5002 72.7C16.5002 72.6 18.1002 72.5 20.0002 72.5H23.3002ZM19.0002 79.5L16.8002 84L14.8002 89H17.6002C19.2002 89 20.5002 88.9 20.5002 88.8L19.0002 79.4V79.5ZM43.9002 72.5C51.4002 72.5 51.9002 72.5 52.8002 73C53.3989 73.3395 53.9212 73.7989 54.3341 74.3495C54.7471 74.9002 55.042 75.5301 55.2002 76.2C55.3002 77.1 54.3002 84.7 53.9002 86.2C53.5002 87.7 52.3002 88.9 49.9002 90.3C50.8562 93.4265 51.7895 96.56 52.7002 99.7L53.0002 100.9L46.7002 100.8L43.7002 90.4H39.2002L38.8002 93.6L38.1002 98.8L37.8002 100.8L32.0002 100.9V100.1L34.5002 82.5L35.5002 74.5L35.8002 73L35.9002 72.5H43.9002ZM44.6002 77.9C41.3002 77.9 41.2002 77.9 41.0002 78.4C40.8002 78.8 40.0002 84 40.0002 84.8C40.0002 85.2 47.0002 85.2 47.8002 84.8C48.5002 84.5 48.5002 84.4 48.9002 81.2C49.2002 78.8 49.2002 78.2 48.4002 78.1L44.6002 77.9Z" fill="#040F16"/>
<path d="M66.9998 73.3C65.7646 81.7571 64.5979 90.224 63.4998 98.7L63.1998 100.7L57.2998 100.9L57.4998 100.1C58.8142 91.0112 60.0475 81.9108 61.1998 72.8C61.1998 72.6 61.9998 72.5 64.1998 72.5H66.9998L66.7998 73.3H66.9998Z" fill="#040F16"/>
</g>
<defs>
<clipPath id="clip0_2066_5517">
<rect width="164" height="102" fill="white"/>
</clipPath>
</defs>
</svg>
