<svg width="624" height="624" viewBox="0 0 624 624" fill="none" xmlns="http://www.w3.org/2000/svg">
<rect width="624" height="624" rx="171" fill="url(#paint0_linear_2012_4962)"/>
<path d="M331.448 113.5C365.793 113.5 396.256 135.556 406.977 168.185L505.109 466.855L505.268 467.348C511.771 488.21 496.185 509.5 474.233 509.5H413.161C399.039 509.5 386.561 500.385 382.236 486.994L382.036 486.354L367.308 437.34H257.692L242.964 486.354C238.835 500.093 226.185 509.5 211.839 509.5H150.767C128.642 509.5 112.985 487.874 119.891 466.855L218.023 168.185C228.744 135.556 259.207 113.5 293.552 113.5H331.448ZM286.414 341.762H338.586L312.5 254.953L286.414 341.762Z" fill="#040F16" stroke="white" stroke-width="19"/>
<defs>
<linearGradient id="paint0_linear_2012_4962" x1="0" y1="0" x2="678.84" y2="66.814" gradientUnits="userSpaceOnUse">
<stop offset="0.350962" stop-color="#00C9FF"/>
<stop offset="0.947115" stop-color="#9CF5FF"/>
</linearGradient>
</defs>
</svg>
