<svg width="20" height="20" viewBox="0 0 20 20" fill="none" xmlns="http://www.w3.org/2000/svg">
<g clip-path="url(#clip0_2876_6370)">
<path d="M25 0H-5V20H25V0Z" fill="#F0F0F0"/>
<path d="M25 2.50011H-5V5.00025H25V2.50011Z" fill="#D80027"/>
<path d="M25 7.50038H-5V10.0005H25V7.50038Z" fill="#D80027"/>
<path d="M25 12.4996H-5V14.9998H25V12.4996Z" fill="#D80027"/>
<path d="M25 17.4988H-5V19.999H25V17.4988Z" fill="#D80027"/>
<path d="M10 0H-5V10.7689H10V0Z" fill="#2E52B2"/>
<path d="M0.847309 4.41093L0.605391 5.15373H-0.175781L0.45619 5.61304L0.214272 6.35584L0.846244 5.89652L1.47822 6.35584L1.2363 5.61304L1.86827 5.15373H1.0871L0.847309 4.41093Z" fill="#F0F0F0"/>
<path d="M1.08938 7.83611L0.84853 7.09332L0.606612 7.83611H-0.174561L0.457411 8.29543L0.215493 9.03822L0.847464 8.5789L1.47944 9.03822L1.23752 8.29543L1.86949 7.83611H1.08938Z" fill="#F0F0F0"/>
<path d="M0.847309 1.72962L0.605391 2.47242H-0.175781L0.45619 2.93173L0.214272 3.67453L0.846244 3.21521L1.47822 3.67453L1.2363 2.93173L1.86827 2.47242H1.0871L0.847309 1.72962Z" fill="#F0F0F0"/>
<path d="M4.15053 4.41093L3.90861 5.15373H3.12744L3.75941 5.61304L3.51749 6.35584L4.14947 5.89652L4.78144 6.35584L4.53952 5.61304L5.17149 5.15373H4.39032L4.15053 4.41093Z" fill="#F0F0F0"/>
<path d="M4.39138 7.83611L4.15053 7.09332L3.90861 7.83611H3.12744L3.75941 8.29543L3.51749 9.03822L4.14947 8.5789L4.78144 9.03822L4.53952 8.29543L5.17149 7.83611H4.39138Z" fill="#F0F0F0"/>
<path d="M7.69461 7.83611L7.45375 7.09332L7.21184 7.83611H6.43066L7.06264 8.29543L6.82072 9.03822L7.45269 8.5789L8.08466 9.03822L7.84274 8.29543L8.47471 7.83611H7.69461Z" fill="#F0F0F0"/>
<path d="M7.45253 4.41093L7.21062 5.15373H6.42944L7.06141 5.61304L6.8195 6.35584L7.45147 5.89652L8.08344 6.35584L7.84152 5.61304L8.47349 5.15373H7.69232L7.45253 4.41093Z" fill="#F0F0F0"/>
<path d="M4.15053 1.72962L3.90861 2.47242H3.12744L3.75941 2.93173L3.51749 3.67453L4.14947 3.21521L4.78144 3.67453L4.53952 2.93173L5.17149 2.47242H4.39032L4.15053 1.72962Z" fill="#F0F0F0"/>
<path d="M7.45253 1.72962L7.21062 2.47242H6.42944L7.06141 2.93173L6.8195 3.67453L7.45147 3.21521L8.08344 3.67453L7.84152 2.93173L8.47349 2.47242H7.69232L7.45253 1.72962Z" fill="#F0F0F0"/>
</g>
<defs>
<clipPath id="clip0_2876_6370">
<rect width="20" height="20" fill="white"/>
</clipPath>
</defs>
</svg>
