<svg width="20" height="20" viewBox="0 0 20 20" fill="none" xmlns="http://www.w3.org/2000/svg">
<g clip-path="url(#clip0_2881_6435)">
<path d="M-5 -1H25V21H-5V-1Z" fill="#FCEA2B"/>
<path d="M-5 -1H5V21H-5V-1Z" fill="#1E50A0"/>
<path d="M15 -1H25V21H15V-1Z" fill="#D22F27"/>
<path d="M9.40055 7.36126L9.15769 8.18867H8.08952C7.99704 8.092 7.88595 8.01507 7.76293 7.96251C7.63992 7.90996 7.50753 7.88286 7.37375 7.88286C7.23998 7.88286 7.10759 7.90996 6.98458 7.96251C6.86156 8.01507 6.75046 8.092 6.65799 8.18867V12.1241L8.08905 10.693H9.15722L8.02682 13.8842H12.1468L10.9474 10.693H12.3832L13.4513 12.1241V8.18867C13.3589 8.09208 13.2478 8.01521 13.1248 7.96269C13.0019 7.91018 12.8695 7.8831 12.7358 7.8831C12.6021 7.8831 12.4698 7.91018 12.3468 7.96269C12.2238 8.01521 12.1127 8.09208 12.0203 8.18867H10.9521L10.7787 7.36126V6.67463C10.8377 6.07913 10.4587 5.52815 9.88138 5.37036C9.75205 5.33364 9.61622 5.32583 9.48353 5.3475C9.35085 5.36917 9.22456 5.41979 9.11364 5.49575L8.3755 5.988L9.40498 6.67463L9.40055 7.36126Z" fill="#A57939" stroke="#A57939" stroke-width="0.971212" stroke-linecap="round" stroke-linejoin="round"/>
<path d="M8.21704 7.81485H11.987V10.0146H8.21704V7.81485Z" fill="#D22F27"/>
<path d="M8.21729 9.69994H11.9872C12.1446 11.8997 9.94482 12.8415 9.94482 12.8415C9.94482 12.8415 7.58823 11.2706 8.21613 9.69994H8.21729Z" fill="#1E50A0"/>
<path d="M9.78748 9.63582H10.4158L10.1012 10.5828L9.78702 9.63605L9.78748 9.63582Z" fill="#FCEA2B" stroke="#FCEA2B" stroke-width="0.971212" stroke-linecap="round" stroke-linejoin="round"/>
<path fill-rule="evenodd" clip-rule="evenodd" d="M10.0495 12.8415C10.0495 12.8415 11.9346 12.2132 11.9346 10.3283V7.81485H8.16461V10.3281C8.16461 12.2132 10.0495 12.8413 10.0495 12.8413V12.8415Z" stroke="black" stroke-width="0.485489" stroke-linecap="round" stroke-linejoin="round"/>
</g>
<defs>
<clipPath id="clip0_2881_6435">
<rect width="20" height="20" fill="white"/>
</clipPath>
</defs>
</svg>
